<svg xmlns="http://www.w3.org/2000/svg" width="178" height="120" viewBox="0 0 178 120"><path fill="#f00" d="M37.127 5h-8.02c-7.878 0-14.56 5.998-14.56 17.64 0 6.985 3.236 12.136 9 14.677L12.79 56.792c-.352.636 0 1.13.56 1.13h4.994c.422 0 .705-.142.845-.494l9.775-19.123h3.52v19.123c0 .21.21.493.49.493h4.363c.422 0 .562-.21.562-.562V5.708c0-.496-.28-.708-.773-.708zm-4.642 28.79H29.53c-4.645 0-9.146-3.387-9.146-11.854 0-8.82 4.22-12.42 8.51-12.42h3.59V33.79z"/><path d="M63.565 23.21h-4.36c-.352 0-.563.282-.563.492v12.81h-8.09v-12.81c0-.35-.14-.49-.49-.49h-4.364c-.35 0-.562.21-.562.49V57.33c0 .353.14.562.49.562h4.435c.282 0 .49-.21.49-.563V40.96h8.092V57.33c0 .353.21.562.563.562h4.36c.352 0 .493-.282.493-.563V23.702c0-.28-.21-.493-.493-.493zM163.14 55.637l-.563-2.4c-.066-.21-.137-.28-.348-.28-.353 0-2.253.772-4.995.772-5.348 0-7.95-5.15-7.95-13.334 0-7.2 2.183-13.657 5.837-13.657.988 0 2.184.28 4.082 2.046.21.21.35.282.56.282.214 0 .425-.144.636-.496l1.9-3.103c.14-.213.21-.428.21-.638 0-.282-.28-.493-.702-.704-2.887-1.482-4.855-1.764-6.543-1.764-6.613 0-11.748 7.236-11.748 19.583 0 10.655 4.924 16.794 11.96 16.794 2.956 0 6.12-1.41 7.386-2.33.278-.21.35-.492.278-.773zM132.57 38.49l8.44-14.788c.142-.21.07-.492-.212-.492h-4.15c-1.195 0-1.62.423-2.037 1.34l-6.333 12.53c-.35.774-.7 1.268-1.053 1.48V23.703c0-.28-.14-.492-.424-.492h-4.57c-.21 0-.422.213-.422.493V57.4c0 .21.14.493.422.493h4.57c.283 0 .424-.21.424-.492V39.69c.21.14.352.35.492.634l8.018 16.51c.422.848 1.057 1.058 1.97 1.058h4.503c.28 0 .352-.282.21-.492l-9.847-18.91zM92.266 53.448h-.846c-1.055 0-1.336-.422-1.336-1.27V23.703c0-.35-.14-.492-.42-.492h-14.07c-.352 0-.562.213-.562.493v2.54c0 8.538-.493 18.88-4.995 27.206H68.49c-.423 0-.563.21-.563.564v10.304c0 .354.282.492.492.492h3.377c.772 0 1.054-.564 1.054-1.06v-5.857h15.056v6.425c0 .28.208.492.49.492h3.59c.42 0 .84-.35.84-1.06v-9.737c0-.353-.21-.565-.56-.565zm-7.598 0h-10.2c3.59-6.14 4.995-13.052 5.488-21.52.14-1.833.21-3.074.21-4.272h4.502v25.792zM106.615 22.363c-7.596 0-10.973 8.93-10.973 19.372 0 10.655 4.78 17.004 11.816 17.004 3.445 0 6.473-1.34 8.018-2.33.28-.142.352-.352.28-.634l-.56-2.4c-.07-.28-.212-.42-.562-.42-.28 0-2.322.772-5.207.772-5.416 0-7.95-4.726-7.95-10.935v-1.67s2.743.33 4.362.33h10.27v-2.965c0-10.934-3.87-16.125-9.495-16.125zm-.775 14.645c-1.62 0-4.146.282-4.146.282s0-1.058.14-2.188c.632-6 2.108-8.363 4.57-8.363 2.25 0 3.66 2.435 4.01 7.87.07 1.128.07 2.4.07 2.4h-4.644zM30.048 89.98h-2.016V75.094h2.016v6.402h6.698v-6.402h2.016V89.98h-2.016v-6.74h-6.698v6.74zM41.81 81.098c1.26-.902 2.582-1.154 3.84-1.154 1.534 0 2.416.42 2.92.945.755.796.776 1.93.776 2.707v3.4c0 .483-.042 1.155.21 1.45.147.188.462.272.798.21l-.252 1.49c-.672.168-1.323 0-1.7-.294-.295-.23-.547-.65-.652-1.07-.315.336-.798.756-1.26.986-.483.25-1.155.44-2.08.44-.776 0-1.68-.127-2.414-.84-.44-.42-.882-1.135-.882-2.163 0-.987.44-1.66.86-2.08.82-.817 2.06-1.07 2.772-1.175.882-.125 1.995-.188 2.813-.188v-.104c0-.588-.022-1.344-.484-1.764-.378-.357-1.03-.44-1.512-.44-.61 0-1.113.125-1.575.272-.442.146-.862.314-1.324.588l-.857-1.218zm5.794 4.115c-.168 0-1.722.063-2.54.23-.547.105-1.198.337-1.555.673-.232.21-.484.588-.484 1.112 0 .547.252.86.42 1.03.378.356.882.42 1.28.42.38 0 .8-.063 1.24-.253.567-.252 1.218-.798 1.638-1.28v-1.932zM59.775 81.16v-.986h1.742v9.806h-1.742v-6.677l-4.66 5.67v1.007H53.37v-9.806h1.744v6.656l4.66-5.67zm.672-5.605c-.084 1.365-.63 2.016-1.05 2.33-.61.484-1.26.568-1.953.568-.63 0-1.365-.084-1.932-.567-.714-.588-.966-1.638-1.03-2.33l1.324-.294c.042.398.168 1.176.61 1.553.167.147.482.336 1.05.336s.88-.187 1.05-.335c.314-.272.524-.756.608-1.553l1.323.293zM65.3 92.562h-1.597v-4.074H64.9c.545-.944 1.008-2.1 1.196-3.17.147-.86.168-1.89.168-3.443v-1.7h6.57v8.313h1.43v4.074h-1.597V89.98h-7.37v2.582zm5.794-10.876h-3.15v1.03c0 1.553-.23 2.75-.293 3.022-.21.986-.524 1.848-1.028 2.75h4.473v-6.802zM84.85 88.656c-.777.903-1.89 1.555-3.822 1.555-1.176 0-2.414-.167-3.506-1.302-.86-.902-1.406-2.268-1.406-3.758 0-1.344.46-2.877 1.406-3.905.777-.84 1.806-1.302 3.17-1.302 1.07 0 2.08.273 2.898 1.05 1.217 1.155 1.532 3.087 1.512 4.43h-7.055c.02.925.377 1.933.965 2.54.61.61 1.323.736 1.932.736.588 0 1.68-.085 2.73-1.072l1.176 1.028zM78.445 75.43c.65 0 1.197.545 1.197 1.196s-.547 1.196-1.197 1.196-1.197-.545-1.197-1.196.547-1.196 1.197-1.196zm4.64 8.482c-.062-.63-.356-1.387-.776-1.827-.505-.524-1.093-.63-1.64-.63-.607 0-1.133.126-1.615.588-.44.42-.82 1.134-.924 1.87h4.956zm-.398-8.482c.65 0 1.196.545 1.196 1.196s-.545 1.196-1.196 1.196-1.196-.545-1.196-1.196.545-1.196 1.197-1.196zM89.112 81.686h-2.94v-1.512h7.623v1.512h-2.94v8.294h-1.742v-8.294zM103.81 88.636c-1.195 1.448-2.75 1.575-3.673 1.575-1.218 0-2.54-.146-3.633-1.26-.692-.692-1.364-1.868-1.364-3.758 0-1.112.21-2.583 1.386-3.82 1.008-1.07 2.205-1.43 3.59-1.43 1.135 0 2.415.23 3.55 1.22l-1.01 1.217c-1.09-.757-1.952-.925-2.54-.925-.986 0-1.637.398-2.016.777-.734.734-1.028 1.91-1.028 2.98 0 1.365.483 2.227.966 2.71.525.524 1.197.776 2.037.776.524 0 1.532-.127 2.56-1.092l1.176 1.03zM111.015 86.18c-.672 0-1.176.23-1.47.504-.23.21-.398.545-.734 1.217l-.42.84c-.21.4-.608.946-1.05 1.198-.566.314-1.406.252-1.658.23l-.168-1.574h.042c.252 0 .63-.062.84-.19.252-.167.44-.46.588-.775l.315-.63c.145-.295.27-.567.503-.8.21-.23.545-.46 1.05-.566v-.084c-.777 0-1.45-.293-1.85-.692-.523-.524-.65-1.196-.65-1.7 0-.967.337-1.7.8-2.143.377-.356 1.154-.84 2.79-.84h4.032v9.806h-1.742v-3.8h-1.218zm-1.03-4.494c-.356 0-.944.043-1.343.42-.168.168-.44.504-.44 1.113 0 .587.272.923.524 1.112.46.356 1.196.377 1.512.377h1.994v-3.024h-2.246zM121.163 80.174h3.947c1.092 0 2.016.19 2.646.8.42.397.65.943.65 1.657 0 .757-.272 1.26-.566 1.575-.42.44-.882.547-1.134.588v.084c.672.063 1.26.38 1.638.777.44.462.588.986.588 1.574 0 .84-.294 1.49-.714 1.91-.692.693-1.868.84-2.897.84h-4.156v-9.804zm3.76 4.03c.313 0 .9-.02 1.28-.335.335-.273.398-.673.398-.945 0-.483-.188-.756-.378-.924-.336-.27-.902-.314-1.217-.314h-2.06v2.52h1.977zm.103 4.264c1.008 0 1.407-.23 1.596-.4.23-.208.42-.565.42-1.007 0-.376-.104-.712-.4-.964-.292-.252-.775-.42-1.74-.42h-1.954v2.792h2.078zM139.242 88.636c-1.197 1.448-2.75 1.575-3.675 1.575-1.218 0-2.54-.146-3.632-1.26-.693-.692-1.365-1.868-1.365-3.758 0-1.112.21-2.583 1.386-3.82 1.008-1.07 2.204-1.43 3.59-1.43 1.134 0 2.415.23 3.55 1.22l-1.01 1.217c-1.09-.757-1.95-.925-2.54-.925-.986 0-1.638.398-2.015.777-.734.734-1.028 1.91-1.028 2.98 0 1.365.482 2.227.966 2.71.524.524 1.196.776 2.036.776.525 0 1.533-.127 2.562-1.092l1.176 1.03zM149.3 88.656c-.775.903-1.888 1.555-3.82 1.555-1.175 0-2.414-.167-3.506-1.302-.86-.902-1.407-2.268-1.407-3.758 0-1.344.463-2.877 1.407-3.905.776-.84 1.806-1.302 3.17-1.302 1.07 0 2.08.273 2.897 1.05 1.22 1.155 1.534 3.087 1.513 4.43h-7.055c.02.925.38 1.933.967 2.54.608.61 1.322.736 1.932.736.588 0 1.68-.085 2.73-1.072l1.174 1.028zm-6.403-13.226c.65 0 1.196.545 1.196 1.196s-.545 1.196-1.196 1.196-1.196-.545-1.196-1.196.546-1.196 1.197-1.196zm4.64 8.482c-.062-.63-.356-1.387-.776-1.827-.503-.524-1.09-.63-1.637-.63-.61 0-1.134.126-1.617.588-.44.42-.818 1.134-.924 1.87h4.955zm-.398-8.482c.65 0 1.196.545 1.196 1.196s-.547 1.196-1.197 1.196-1.198-.545-1.198-1.196.546-1.196 1.197-1.196z"/></svg>